#!OML:ASF I:\Actors\actors\Patient Classification 1\Patient 1\Session 1\Subject1.ASF
:FULLY-SPECIFIED
:DEGREES
1059
root 0.824618 17.4847 9.63156 10.1745 -1.84123 -8.69917
lowerback -3.91586 3.00621 6.53254
upperback -8.95563 4.12156 0.965881
thorax -6.83122 1.6593 -2.69497
lowerneck -12.1948 -5.08843 -3.1576
upperneck 24.0542 -8.19898 6.62244
head 10.0745 -3.35489 1.83269
rclavicle -2.46493e-014 -3.22031e-014
rhumerus 0.366293 26.8128 -59.7716
rradius 127.035
rwrist 7.26909
rhand -2.82049 -42.3025
rfingers 7.12502
rthumb 22.8862 -70.9644
lclavicle -2.46493e-014 -3.22031e-014
lhumerus -48.0621 10.7833 79.8606
lradius 112.774
lwrist 57.795
lhand -44.3305 0.79661
lfingers 7.12502
lthumb -17.1393 30.0607
rfemur -2.72533 27.5786 24.7678
rtibia 0.863411
rfoot -12.9335 -26.6718
rtoes 0.940614
lfemur 10.5438 -52.3877 -17.6375
ltibia -5.09415
lfoot -34.6462 57.8023
ltoes 16.7129
1060
root 0.820318 17.4853 9.62592 10.1149 -1.82254 -8.71735
lowerback -3.88054 2.99988 6.49722
upperback -8.90455 4.11361 0.970764
thorax -6.79829 1.65996 -2.67086
lowerneck -12.2672 -5.0395 -2.99308
upperneck 24.3643 -8.15477 6.48609
head 10.1842 -3.32518 1.7626
rclavicle -2.08724e-015 1.90833e-014
rhumerus 0.128453 27.8536 -60.3473
rradius 125.367
rwrist 7.21846
rhand -2.90501 -42.2828
rfingers 7.12502
rthumb 22.8051 -70.9547
lclavicle -2.08724e-015 1.90833e-014
lhumerus -47.97 10.722 80.3363
lradius 112.672
lwrist 57.6594
lhand -44.2639 0.658327
lfingers 7.12502
lthumb -17.0753 29.9279
rfemur -2.70223 27.5154 24.8271
rtibia 0.914547
rfoot -12.8956 -26.6463
rtoes 0.757788
lfemur 10.5553 -52.3391 -17.6203
ltibia -5.04231
lfoot -34.7883 57.6646
ltoes 16.931
1061
root 0.815806 17.4863 9.61961 10.0359 -1.70556 -8.78941
lowerback -3.79858 2.98485 6.51362
upperback -8.86909 4.09923 0.970726
thorax -6.80694 1.6521 -2.68353
lowerneck -12.3437 -5.04523 -2.96306
upperneck 24.6856 -8.21977 6.57707
head 10.3229 -3.3318 1.78048
rclavicle 6.95746e-015 -2.78299e-014
rhumerus -0.298583 28.7747 -61.0982
rradius 123.898
rwrist 7.06648
rhand -3.23889 -42.3006
rfingers 7.12502
rthumb 22.4847 -71.0116
lclavicle 6.95746e-015 -2.78299e-014
lhumerus -47.8189 10.5655 80.8354
lradius 112.561
lwrist 57.6796
lhand -44.1308 0.870831
lfingers 7.12502
lthumb -16.9471 30.1515
rfemur -2.61929 27.4916 24.9837
rtibia 0.926063
rfoot -12.9099 -26.7137
rtoes 0.820194
lfemur 10.4463 -52.052 -17.39
ltibia -5.0554
lfoot -34.0032 57.4909
ltoes 16.4856
1062
root 0.811541 17.4874 9.61332 9.98709 -1.56699 -8.82289
lowerback -3.88131 2.97877 6.46442
upperback -8.77495 4.07922 0.974229
thorax -6.66099 1.65263 -2.64511
lowerneck -12.3706 -5.04576 -3.09055
upperneck 24.9137 -8.28049 6.84119
head 10.434 -3.33444 1.88782
rclavicle -1.88845e-014 -2.38542e-014
rhumerus -0.830663 29.5793 -61.9411
rradius 122.457
rwrist 7.22665
rhand -3.77518 -42.476
rfingers 7.12502
rthumb 21.9698 -71.2484
lclavicle -1.88845e-014 -2.38542e-014
lhumerus -47.5807 10.3542 81.3719
lradius 112.463
lwrist 57.7487
lhand -43.9862 1.19048
lfingers 7.12502
lthumb -16.8079 30.483
rfemur -2.5725 27.4472 25.0716
rtibia 0.917704
rfoot -12.9454 -26.793
rtoes 0.996502
lfemur 10.2776 -51.7954 -17.1588
ltibia -5.07772
lfoot -33.0959 57.3811
ltoes 15.7292
1063
root 0.807645 17.4878 9.60795 9.96636 -1.4428 -8.78856
lowerback -3.92725 2.95706 6.32051
upperback -8.73662 4.04436 0.978755
thorax -6.60329 1.64773 -2.55717
lowerneck -12.369 -5.06215 -3.14973
upperneck 25.1506 -8.32791 6.90694
head 10.5295 -3.34794 1.91618
rclavicle 2.87244e-014 -1.78906e-014
rhumerus -1.72816 30.3609 -63.0307
rradius 121.067
rwrist 7.6827
rhand -4.51611 -42.567
rfingers 7.12502
rthumb 21.2583 -71.4212
lclavicle 2.87244e-014 -1.78906e-014
lhumerus -47.4782 10.0653 81.8751
lradius 112.378
lwrist 57.7869
lhand -44.0106 1.06316
lfingers 7.12502
lthumb -16.8314 30.3537
rfemur -2.57398 27.3413 25.048
rtibia 0.912592
rfoot -12.9483 -26.8063
rtoes 1.1167
lfemur 10.1759 -51.7897 -17.1016
ltibia -5.04112
lfoot -32.9378 57.2842
ltoes 15.6225
1064
root 0.803123 17.487 9.60273 9.90938 -1.31421 -8.82798
lowerback -3.731 2.95365 6.31695
upperback -8.8101 4.05918 0.945149
thorax -6.79246 1.64632 -2.60381
lowerneck -12.3413 -5.11599 -3.06894
upperneck 25.4591 -8.42554 6.81445
head 10.6357 -3.38839 1.85883
rclavicle 1.45113e-014 3.02153e-014
rhumerus -3.13604 31.0191 -64.5135
rradius 119.836
rwrist 8.09541
rhand -5.08053 -42.4263
rfingers 7.12502
rthumb 20.716 -71.3406
lclavicle 1.45113e-014 3.02153e-014
lhumerus -47.5531 9.57867 82.3085
lradius 112.325
lwrist 57.8801
lhand -44.226 0.593071
lfingers 7.12502
lthumb -17.0387 29.8658
rfemur -2.53254 27.1739 25.1306
rtibia 0.920013
rfoot -12.9635 -26.7482
rtoes 1.24081
lfemur 10.1824 -51.8353 -17.0414
ltibia -5.01054
lfoot -32.9744 57.1864
ltoes 15.7505
1065
root 0.797972 17.4852 9.59818 9.82593 -1.20063 -8.93135
lowerback -3.3435 3.01824 6.44847
upperback -8.99374 4.18502 0.844325
thorax -7.19125 1.67871 -2.81142
lowerneck -12.1696 -5.23975 -3.02191
upperneck 25.7343 -8.64289 6.82457
head 10.7156 -3.47946 1.83072
rclavicle -2.0773e-014 -2.46493e-014
rhumerus -5.07635 31.4349 -66.3384
rradius 118.756
rwrist 8.58134
rhand -5.32105 -42.142
rfingers 7.12502
rthumb 20.4849 -71.0814
lclavicle -2.0773e-014 -2.46493e-014
lhumerus -47.7333 8.92472 82.6755
lradius 112.272
lwrist 57.9361
lhand -43.8049 1.50168
lfingers 7.12502
lthumb -16.6334 30.8089
rfemur -2.44495 26.9916 25.3044
rtibia 0.903283
rfoot -12.9545 -26.665
rtoes 1.27079
lfemur 10.2294 -51.7775 -16.9082
ltibia -5.03857
lfoot -32.9268 57.0573
ltoes 15.781
1066
root 0.793038 17.4839 9.59403 9.77593 -1.09956 -9.02528
lowerback -3.20983 3.0485 6.39487
upperback -9.02607 4.24055 0.873429
thorax -7.30376 1.70674 -2.76126
lowerneck -12.1479 -5.32131 -3.01946
upperneck 25.9364 -8.76095 6.7633
head 10.7904 -3.53523 1.79379
rclavicle -1.88845e-015 2.14687e-014
rhumerus -6.66327 31.8128 -67.8941
rradius 117.768
rwrist 9.0552
rhand -5.52857 -41.9281
rfingers 7.12502
rthumb 20.2855 -70.8887
lclavicle -1.88845e-015 2.14687e-014
lhumerus -47.6896 8.55741 83.1178
lradius 112.192
lwrist 57.8664
lhand -42.7716 3.48263
lfingers 7.12502
lthumb -15.6384 32.8706
rfemur -2.39896 26.8519 25.453
rtibia 0.896072
rfoot -12.9153 -26.617
rtoes 1.16288
lfemur 10.2835 -51.8072 -16.787
ltibia -5.10037
lfoot -32.9437 57.0306
ltoes 15.952
1067
root 0.788035 17.484 9.59018 9.759 -0.996885 -9.09497
lowerback -3.75646 2.95327 6.04499
upperback -8.601 4.05715 1.16329
thorax -6.57938 1.68265 -2.21858
lowerneck -12.5694 -5.27591 -3.06858
upperneck 25.9888 -8.62528 6.56029
head 10.8765 -3.4887 1.73714
rclavicle 4.51241e-014 2.26615e-014
rhumerus -7.18157 32.3379 -68.8164
rradius 116.781
rwrist 9.46573
rhand -5.81203 -41.8977
rfingers 7.12502
rthumb 20.013 -70.8871
lclavicle 4.51241e-014 2.26615e-014
lhumerus -47.0101 8.77841 83.7668
lradius 112.031
lwrist 57.6941
lhand -42.4263 4.01182
lfingers 7.12502
lthumb -15.3059 33.4254
rfemur -2.38967 26.8325 25.5703
rtibia 0.925065
rfoot -12.9914 -26.6586
rtoes 1.35859
lfemur 10.3038 -51.896 -16.6786
ltibia -5.14822
lfoot -32.9008 57.0754
ltoes 15.9214
1068
root 0.783153 17.485 9.58749 9.75897 -0.901586 -9.10195
lowerback -3.34909 3.03694 6.14087
upperback -8.89524 4.21126 0.997274
thorax -7.10498 1.72438 -2.47891
lowerneck -12.4886 -5.39556 -3.1421
upperneck 26.5404 -8.87293 6.71176
head 11.095 -3.5783 1.77433
rclavicle 3.21037e-014 1.59028e-015
rhumerus -9.611 32.4792 -70.9879
rradius 116.022
rwrist 10.1045
rhand -6.1046 -41.8888
rfingers 7.12502
rthumb 19.7318 -70.9073
lclavicle 3.21037e-014 1.59028e-015
lhumerus -47.4013 8.01793 84.019
lradius 111.959
lwrist 57.6208
lhand -42.677 3.34005
lfingers 7.12502
lthumb -15.5473 32.7351
rfemur -2.37779 26.9509 25.6137
rtibia 0.939781
rfoot -13.181 -26.796
rtoes 1.92056
lfemur 10.2629 -51.9487 -16.6132
ltibia -5.15168
lfoot -32.7246 57.0985
ltoes 15.6203
1069
root 0.778827 17.4855 9.58602 9.76849 -0.800015 -9.06296
lowerback -3.80134 2.93086 5.82039
upperback -8.59642 4.02388 1.17735
thorax -6.56374 1.68202 -2.07734
lowerneck -12.8254 -5.31277 -3.24322
upperneck 26.7744 -8.75702 6.75394
head 11.2514 -3.51492 1.8158
rclavicle -1.17283e-014 -1.66979e-014
rhumerus -10.66 32.9318 -72.3445
rradius 115.161
rwrist 10.5778
rhand -6.52551 -41.9507
rfingers 7.12502
rthumb 19.3271 -71.0103
lclavicle -1.17283e-014 -1.66979e-014
lhumerus -46.9981 8.04949 84.4888
lradius 111.841
lwrist 57.4944
lhand -42.7849 2.71692
lfingers 7.12502
lthumb -15.6512 32.1038
rfemur -2.36405 27.0212 25.5963
rtibia 0.911397
rfoot -13.2178 -26.9467
rtoes 1.99038
lfemur 10.222 -52.043 -16.6031
ltibia -5.16217
lfoot -32.5218 57.1704
ltoes 15.2951
1070
root 0.775453 17.4848 9.58497 9.78904 -0.667055 -9.04111
lowerback -3.809 2.9144 5.76845
upperback -8.63423 4.00192 1.14858
thorax -6.60276 1.67178 -2.07924
lowerneck -12.6895 -5.31981 -3.28857
upperneck 26.8695 -8.79019 6.83831
head 11.2693 -3.52543 1.85366
rclavicle -1.25234e-014 -2.38542e-014
rhumerus -12.6117 33.1308 -74.3172
rradius 114.319
rwrist 10.9392
rhand -7.1805 -42.1067
rfingers 7.12502
rthumb 18.6972 -71.2281
lclavicle -1.25234e-014 -2.38542e-014
lhumerus -47.1186 7.56289 84.7419
lradius 111.806
lwrist 57.4332
lhand -42.6997 2.6385
lfingers 7.12502
lthumb -15.5691 32.0318
rfemur -2.36214 27.0128 25.5935
rtibia 0.868079
rfoot -13.1612 -27.0988
rtoes 1.80427
lfemur 10.1001 -52.082 -16.4951
ltibia -5.17456
lfoot -32.3263 57.1452
ltoes 15.1207
1071
root 0.77327 17.4848 9.58422 9.81238 -0.538167 -9.02494
lowerback -3.86219 2.90859 5.73257
upperback -8.64528 3.98983 1.12987
thorax -6.58572 1.66799 -2.07628
lowerneck -12.5924 -5.37118 -3.43084
upperneck 26.954 -8.88205 6.9885
head 11.3033 -3.56375 1.9224
rclavicle 4.19436e-014 -8.74653e-015
rhumerus -14.5922 33.2484 -76.2591
rradius 113.496
rwrist 10.9374
rhand -7.64461 -42.3712
rfingers 7.12502
rthumb 18.2508 -71.535
lclavicle 4.19436e-014 -8.74653e-015
lhumerus -47.1761 7.04275 85.023
lradius 111.721
lwrist 57.3211
lhand -42.5719 2.86053
lfingers 7.12502
lthumb -15.446 32.2634
rfemur -2.36844 27.0049 25.5913
rtibia 0.840036
rfoot -13.1723 -27.2261
rtoes 1.8234
lfemur 9.9155 -52.0327 -16.336
ltibia -5.15828
lfoot -32.0803 57.008
ltoes 15.0506
1072
root 0.772264 17.4853 9.58393 9.82081 -0.411963 -9.01523
lowerback -3.93925 2.89759 5.70674
upperback -8.62415 3.96802 1.12519
thorax -6.52123 1.66115 -2.06192
lowerneck -12.6036 -5.44049 -3.5697
upperneck 27.1156 -8.98229 7.05493
head 11.3847 -3.61066 1.95656
rclavicle -4.23411e-014 -2.5842e-014
rhumerus -16.5604 33.285 -78.1594
rradius 112.785
rwrist 10.7015
rhand -7.78053 -42.8213
rfingers 7.12502
rthumb 18.12 -71.9972
lclavicle -4.23411e-014 -2.5842e-014
lhumerus -47.2054 6.52381 85.3331
lradius 111.614
lwrist 57.2283
lhand -42.8956 2.32607
lfingers 7.12502
lthumb -15.7578 31.7046
rfemur -2.36323 27.0094 25.5989
rtibia 0.82924
rfoot -13.2172 -27.3449
rtoes 1.81711
lfemur 9.75844 -51.9489 -16.1924
ltibia -5.15178
lfoot -31.7219 56.8829
ltoes 14.7466
1073
root 0.771317 17.4847 9.58349 9.80411 -0.236692 -9.0126
lowerback -3.98298 2.86386 5.67552
upperback -8.60618 3.9192 1.13021
thorax -6.48222 1.64069 -2.03632
lowerneck -12.648 -5.44659 -3.41532
upperneck 27.3588 -9.00099 6.88832
head 11.4715 -3.61549 1.8675
rclavicle -1.63003e-014 -1.59028e-014
rhumerus -18.3748 33.4303 -79.8564
rradius 112.064
rwrist 10.2616
rhand -8.2686 -43.4181
rfingers 7.12502
rthumb 17.6504 -72.637
lclavicle -1.63003e-014 -1.59028e-014
lhumerus -47.2831 6.011 85.6357
lradius 111.549
lwrist 57.2483
lhand -43.3644 1.54276
lfingers 7.12502
lthumb -16.2092 30.8851
rfemur -2.32436 27.0437 25.6367
rtibia 0.828123
rfoot -13.3048 -27.5437
rtoes 1.90497
lfemur 9.62586 -51.8698 -16.0457
ltibia -5.16734
lfoot -31.3741 56.7395
ltoes 14.3759
